# xmcd
#
# Track frame offsets:
#	150
#	24660
#	42875
#	69008
#	89150
#	105630
#	127865
#	147798
#	164608
#	188795
#
# Disc length: 2768 seconds
#
# Revision: 1
# Processed by: cddbd v1.4PL0 Copyright (c) Steve Scherf et al.
# Submitted via: audiograbber 1.82.02
#
DISCID=820ace0a
DTITLE=Teddy Pendergrass - Super Hits
DYEAR=2001
DGENRE=R&B
TTITLE0=Close The Door
TTITLE1=I Want My Baby Back
TTITLE2=Come Go With Me
TTITLE3=The Whole Town's Laughing At Me
TTITLE4=Shout And Scream
TTITLE5=Love T.K.O.
TTITLE6=The More I Get The More I Want
TTITLE7=Now Is The Time To Do It
TTITLE8=You're My Latest My Greatest Inspiration
TTITLE9=Life Is A Song Worth Singing
EXTD=
EXTT0=
EXTT1=
EXTT2=
EXTT3=
EXTT4=
EXTT5=
EXTT6=
EXTT7=
EXTT8=
EXTT9=
PLAYORDER=
